<svg width="425" height="429" viewBox="0 0 425 429" fill="none" xmlns="http://www.w3.org/2000/svg">
<path d="M424.695 245.5C409.673 349.275 320.356 429 212.419 429C104.481 429 15.1646 349.275 0.142349 245.5H67.1592C81.4163 312.634 141.036 363 212.419 363C283.802 363 343.421 312.634 357.678 245.5H424.695Z" fill="#D9D9D9"/>
<path d="M424.837 184.5C410.246 80.2372 320.703 0 212.419 0C104.135 0 14.5915 80.2372 0 184.5H66.9505C80.8253 116.867 140.682 66 212.419 66C284.156 66 344.012 116.867 357.887 184.5H424.837Z" fill="#D9D9D9"/>
<path d="M258.919 214.5C258.919 239.905 238.324 260.5 212.919 260.5C187.514 260.5 166.919 239.905 166.919 214.5C166.919 189.095 187.514 168.5 212.919 168.5C238.324 168.5 258.919 189.095 258.919 214.5Z" fill="#D9D9D9"/>
</svg>
